 http://img208.imageshack.us/img208/830/levsep122745b15d.jpg




Release Name: Vengeance.Is.Mine.2012.DvDRip.x264.AC3-MATA
Size: 896MB
Video: x264, 720×400, 1 000 Kbps
Audio: English, AC3, 384bps
Runtime: 1h 30mn

IMDB  http://www.imdb.com/title/tt2197561/

Genre:  Action | Crime | Drama
IMDB Rating: 4.2/10
Directed by: Keoni Waxman
Starring: Crystal Balint, Fraser Corbett and Ben Cotton


Plot: After leaving the force, Elijah Kane (Steven Seagal) falls back into his special forces past, re-emerging from the ashes of his destroyed Special Investigations Unit to once again work for the government. Aware of his skill as a long-range sniper, Kane is recruited by Marcus Mitchell (Adrian Holmes) of the CIA to come back as an operative. In return, Marcus promises that the CIA will provide information to Kane about who put out the hit on his SIU team. Kane is given a long-term off-the-grid mission to take out a high level target that the CIA cannot go after in the traditional way. Marcus feeds Kane intel that leads him into the targets circle with a goal of getting Kane close enough to take a kill shot from a distance. Only then will the identity of the target be revealed to the team. For this operation, Kane recruits three agents to form a new team of operatives. All three are trained by Kane and ultimately driven (like Kane) by not just business, but also for personal reasons.

 Source: DVDR


 Video
 ID : 1
 Format : AVC
 Format/Info : Advanced Video Codec
 Format profile : Main@L3.0
 Format settings, CABAC : Yes
 Format settings, ReFrames : 4 frames
 Codec ID : V_MPEG4/ISO/AVC
 Duration : 1h 30mn
 Bit rate : 1 000 Kbps
 Width : 720 pixels
 Height : 400 pixels
 Display aspect ratio : 16:9
 Frame rate mode : Variable
 Frame rate : 23.976 fps
 Color space : YUV
 Chroma subsampling : 4:2:0
 Bit depth : 8 bits
 Scan type : Progressive
 Bits/(Pixel*Frame) : 0.145
 Stream size : 631 MiB (70%)
 Writing library : x264 core 125

 Audio
 ID : 2
 Format : AC-3
 Format/Info : Audio Coding 3
 Mode extension : CM (complete main)
 Codec ID : A_AC3
 Duration : 1h 30mn
 Bit rate mode : Constant
 Bit rate : 384 Kbps
 Channel(s) : 6 channels
 Channel positions : Front: L C R, Side: L R, LFE
 Sampling rate : 48.0 KHz
 Bit depth : 16 bits
 Compression mode : Lossy
 Stream size : 248 MiB (28%)
 Language : English

 
http://img685.imageshack.us/img685/2134/47268111.png 
http://img38.imageshack.us/img38/5233/88016756.png 
http://img641.imageshack.us/img641/5995/712231.jpg



